<mxfile host="app.diagrams.net" modified="2024-04-23T06:59:00.583Z" agent="Mozilla/5.0 (Macintosh; Intel Mac OS X 10.15; rv:125.0) Gecko/20100101 Firefox/125.0" version="24.2.8" etag="Kzspj2XzxbfbreAtFJGP" type="github">
  <diagram name="Page-1" id="pBLUIVw-NX8se5Isz_DB">
    <mxGraphModel>
      <root>
        <mxCell id="0" />
        <mxCell id="1" parent="0" />
      </root>
    </mxGraphModel>
  </diagram>
</mxfile>
